<svg width="148" height="52" viewBox="0 0 148 52" fill="none" xmlns="http://www.w3.org/2000/svg">
<circle cx="30" cy="13" r="13" fill="black"/>
<circle cx="13" cy="39" r="13" fill="black"/>
<circle cx="46" cy="39" r="13" fill="black"/>
<path d="M81.976 15.376L84.208 9.088H84.256L86.416 15.376H81.976ZM82.336 4.864L75.856 22H79.648L80.992 18.184H87.4L88.696 22H92.608L86.2 4.864H82.336ZM105.51 10.624H109.158C109.046 9.632 108.774 8.752 108.342 7.984C107.91 7.216 107.358 6.576 106.686 6.064C106.03 5.536 105.278 5.136 104.43 4.864C103.598 4.592 102.71 4.456 101.766 4.456C100.454 4.456 99.2697 4.688 98.2137 5.152C97.1737 5.616 96.2937 6.256 95.5737 7.072C94.8537 7.888 94.3017 8.848 93.9177 9.952C93.5337 11.04 93.3417 12.224 93.3417 13.504C93.3417 14.752 93.5337 15.92 93.9177 17.008C94.3017 18.08 94.8537 19.016 95.5737 19.816C96.2937 20.616 97.1737 21.248 98.2137 21.712C99.2697 22.16 100.454 22.384 101.766 22.384C102.822 22.384 103.79 22.224 104.67 21.904C105.55 21.584 106.318 21.12 106.974 20.512C107.63 19.904 108.158 19.168 108.558 18.304C108.958 17.44 109.206 16.472 109.302 15.4H105.654C105.51 16.552 105.11 17.48 104.454 18.184C103.814 18.888 102.918 19.24 101.766 19.24C100.918 19.24 100.198 19.08 99.6057 18.76C99.0137 18.424 98.5337 17.984 98.1657 17.44C97.7977 16.896 97.5257 16.288 97.3497 15.616C97.1897 14.928 97.1097 14.224 97.1097 13.504C97.1097 12.752 97.1897 12.024 97.3497 11.32C97.5257 10.616 97.7977 9.992 98.1657 9.448C98.5337 8.888 99.0137 8.448 99.6057 8.128C100.198 7.792 100.918 7.624 101.766 7.624C102.23 7.624 102.67 7.704 103.086 7.864C103.518 8.008 103.902 8.216 104.238 8.488C104.574 8.76 104.854 9.08 105.078 9.448C105.302 9.8 105.446 10.192 105.51 10.624ZM111.875 4.864V22H115.403V9.976H115.451L119.651 22H122.555L126.755 9.856H126.803V22H130.331V4.864H125.027L121.235 16.648H121.187L117.179 4.864H111.875ZM133.648 4.864V22H146.656V18.832H137.416V14.632H145.72V11.704H137.416V8.032H146.464V4.864H133.648Z" fill="black"/>
<path d="M78.4189 30.864V48H89.7709V46.08H80.6989V30.864H78.4189ZM102.411 47.952C102.059 48.16 101.571 48.264 100.947 48.264C100.419 48.264 99.9948 48.12 99.6748 47.832C99.3708 47.528 99.2188 47.04 99.2188 46.368C98.6588 47.04 98.0028 47.528 97.2508 47.832C96.5148 48.12 95.7148 48.264 94.8508 48.264C94.2908 48.264 93.7548 48.2 93.2428 48.072C92.7468 47.944 92.3148 47.744 91.9468 47.472C91.5788 47.2 91.2828 46.848 91.0588 46.416C90.8508 45.968 90.7468 45.432 90.7468 44.808C90.7468 44.104 90.8668 43.528 91.1068 43.08C91.3468 42.632 91.6588 42.272 92.0428 42C92.4428 41.712 92.8908 41.496 93.3868 41.352C93.8988 41.208 94.4188 41.088 94.9468 40.992C95.5068 40.88 96.0348 40.8 96.5308 40.752C97.0428 40.688 97.4908 40.608 97.8748 40.512C98.2588 40.4 98.5628 40.248 98.7868 40.056C99.0108 39.848 99.1228 39.552 99.1228 39.168C99.1228 38.72 99.0348 38.36 98.8588 38.088C98.6988 37.816 98.4828 37.608 98.2108 37.464C97.9548 37.32 97.6588 37.224 97.3228 37.176C97.0028 37.128 96.6828 37.104 96.3628 37.104C95.4988 37.104 94.7788 37.272 94.2028 37.608C93.6268 37.928 93.3148 38.544 93.2668 39.456H91.2268C91.2588 38.688 91.4188 38.04 91.7068 37.512C91.9948 36.984 92.3788 36.56 92.8588 36.24C93.3388 35.904 93.8828 35.664 94.4908 35.52C95.1148 35.376 95.7788 35.304 96.4828 35.304C97.0428 35.304 97.5948 35.344 98.1388 35.424C98.6988 35.504 99.2028 35.672 99.6508 35.928C100.099 36.168 100.459 36.512 100.731 36.96C101.003 37.408 101.139 37.992 101.139 38.712V45.096C101.139 45.576 101.163 45.928 101.211 46.152C101.275 46.376 101.467 46.488 101.787 46.488C101.963 46.488 102.171 46.448 102.411 46.368V47.952ZM99.0988 41.592C98.8428 41.784 98.5068 41.928 98.0908 42.024C97.6748 42.104 97.2348 42.176 96.7708 42.24C96.3228 42.288 95.8668 42.352 95.4028 42.432C94.9388 42.496 94.5228 42.608 94.1548 42.768C93.7868 42.928 93.4828 43.16 93.2428 43.464C93.0188 43.752 92.9068 44.152 92.9068 44.664C92.9068 45 92.9708 45.288 93.0988 45.528C93.2428 45.752 93.4188 45.936 93.6268 46.08C93.8508 46.224 94.1068 46.328 94.3948 46.392C94.6828 46.456 94.9868 46.488 95.3068 46.488C95.9788 46.488 96.5548 46.4 97.0348 46.224C97.5148 46.032 97.9068 45.8 98.2108 45.528C98.5148 45.24 98.7388 44.936 98.8828 44.616C99.0268 44.28 99.0988 43.968 99.0988 43.68V41.592ZM104.381 30.864V48H106.421V46.344H106.469C106.693 46.712 106.965 47.024 107.285 47.28C107.621 47.52 107.973 47.712 108.341 47.856C108.709 48 109.077 48.104 109.445 48.168C109.829 48.232 110.173 48.264 110.477 48.264C111.421 48.264 112.245 48.096 112.949 47.76C113.669 47.424 114.261 46.968 114.725 46.392C115.205 45.8 115.557 45.112 115.781 44.328C116.021 43.544 116.141 42.712 116.141 41.832C116.141 40.952 116.021 40.12 115.781 39.336C115.541 38.552 115.181 37.864 114.701 37.272C114.237 36.664 113.645 36.184 112.925 35.832C112.221 35.48 111.389 35.304 110.429 35.304C109.565 35.304 108.773 35.464 108.053 35.784C107.333 36.088 106.805 36.584 106.469 37.272H106.421V30.864H104.381ZM113.981 41.688C113.981 42.296 113.917 42.888 113.789 43.464C113.661 44.04 113.453 44.552 113.165 45C112.877 45.448 112.493 45.808 112.013 46.08C111.549 46.352 110.965 46.488 110.261 46.488C109.557 46.488 108.957 46.36 108.461 46.104C107.965 45.832 107.557 45.48 107.237 45.048C106.933 44.616 106.709 44.12 106.565 43.56C106.421 42.984 106.349 42.392 106.349 41.784C106.349 41.208 106.413 40.64 106.541 40.08C106.685 39.52 106.909 39.024 107.213 38.592C107.517 38.144 107.909 37.784 108.389 37.512C108.869 37.24 109.453 37.104 110.141 37.104C110.797 37.104 111.365 37.232 111.845 37.488C112.341 37.744 112.741 38.088 113.045 38.52C113.365 38.952 113.597 39.448 113.741 40.008C113.901 40.552 113.981 41.112 113.981 41.688Z" fill="black"/>
</svg>
