<svg width="38" height="30" viewBox="0 0 38 30" fill="none" xmlns="http://www.w3.org/2000/svg">
<g clip-path="url(#clip0)">
<path d="M34.523 3.48837V9.29302L29.4953 12.2442L27.43 11.0826L25.7297 14.0686L23.0524 18.7291L22.5691 19.5349V26.5116H15.4309V19.5349L14.951 18.7291L12.2738 14.0686L10.57 11.0826L8.50819 12.2442L3.47699 9.29302V3.48837H16.6895L17.3119 3.83721L19.0122 4.79651L20.7055 3.83721L21.3278 3.48837H34.5404H34.523ZM38.0174 0H20.4169L19.0017 0.798837L17.5866 0H0V11.2953L8.46994 16.2663L9.27313 15.8128L11.9539 20.4733V30H26.0461V20.4733L28.7269 15.8128L29.5301 16.2663L38 11.2953V0H38.0174Z" fill="white"/>
</g>
<defs>
<clipPath id="clip0">
<rect width="38" height="30" fill="white"/>
</clipPath>
</defs>
</svg>
